<svg width="33" height="31" viewBox="0 0 33 31" fill="none" xmlns="http://www.w3.org/2000/svg">
<path d="M30.8891 25.0292V26.6975C30.8891 28.5326 29.3876 30.0341 27.5525 30.0341H4.19623C2.34441 30.0341 0.859619 28.5326 0.859619 26.6975V3.34125C0.859619 1.50611 2.34441 0.00463867 4.19623 0.00463867H27.5525C29.3876 0.00463867 30.8891 1.50611 30.8891 3.34125V5.00955H15.8744C14.0225 5.00955 12.5378 6.51103 12.5378 8.34616V21.6926C12.5378 23.5277 14.0225 25.0292 15.8744 25.0292H30.8891ZM15.8744 21.6926H32.5574V8.34616H15.8744V21.6926ZM22.5476 17.5218C21.1629 17.5218 20.0451 16.4041 20.0451 15.0194C20.0451 13.6347 21.1629 12.5169 22.5476 12.5169C23.9323 12.5169 25.05 13.6347 25.05 15.0194C25.05 16.4041 23.9323 17.5218 22.5476 17.5218Z" fill="black"/>
</svg>
