<svg width="31" height="30" viewBox="0 0 31 30" fill="none" xmlns="http://www.w3.org/2000/svg">
<path d="M28.7419 5.67789L28.7647 5.65016L22.2384 0.363842L20.1826 2.89932L23.5551 5.63058C21.9366 6.62911 20.9283 8.5201 21.2807 10.6265C21.5254 12.0933 22.5354 13.361 23.8423 14.0707C25.3025 14.8653 26.5833 14.7919 27.7222 14.3873L27.6977 24.4737C27.6977 24.6972 27.6553 24.9109 27.5704 25.1116C27.4888 25.3025 27.3697 25.4787 27.2164 25.6305C27.0695 25.7773 26.8933 25.8981 26.7024 25.978C26.3011 26.1477 25.8344 26.1477 25.4298 25.978C25.2405 25.8981 25.0627 25.7773 24.9109 25.6239C24.7641 25.4771 24.645 25.3025 24.5634 25.1116C24.4786 24.9109 24.4362 24.6972 24.4362 24.4737L24.4737 21.2105C24.4737 20.5514 24.3448 19.9102 24.0886 19.3048C23.8423 18.7224 23.4882 18.1954 23.0428 17.7532C22.5941 17.3045 22.0687 16.9505 21.4863 16.7008C20.8809 16.4463 20.2397 16.3158 19.5789 16.3158H17.9474V9.78947V3.26316C17.9474 1.46189 16.4855 0 14.6842 0H3.26316C1.46189 0 0 1.46189 0 3.26316V9.78947V26.1053C0 27.9065 1.46189 29.3684 3.26316 29.3684H14.6842C16.4855 29.3684 17.9474 27.9065 17.9474 26.1053V19.5789H19.5789C19.8008 19.5789 20.0146 19.623 20.2169 19.7062C20.4062 19.7894 20.584 19.9069 20.7357 20.0603C20.8826 20.2071 21.0017 20.3849 21.0833 20.5758C21.1681 20.7765 21.2105 20.9903 21.2105 21.2105L21.1714 24.4737C21.1714 25.1361 21.3003 25.7773 21.5564 26.3794C21.8028 26.9651 22.1568 27.4888 22.6023 27.931C23.0509 28.3829 23.5763 28.737 24.1588 28.9834C24.7641 29.2412 25.4037 29.3684 26.0661 29.3684C26.7285 29.3684 27.3681 29.2412 27.9718 28.9834C28.5559 28.7386 29.0813 28.3846 29.5234 27.9375C29.9737 27.4888 30.3278 26.9651 30.5758 26.3826C30.8319 25.7773 30.9608 25.1361 30.9608 24.4737L31 9.78947C31 8.06163 30.0961 6.55242 28.7419 5.67789ZM6.52632 24.4737L8.15789 16.3158H3.26316L11.4211 4.89474L9.78947 13.0526H14.6842L6.52632 24.4737ZM26.1053 11.4211C25.2046 11.4211 24.4737 10.6901 24.4737 9.78947C24.4737 8.89047 25.2046 8.15789 26.1053 8.15789C27.0059 8.15789 27.7368 8.89047 27.7368 9.78947C27.7368 10.6901 27.0059 11.4211 26.1053 11.4211Z" fill="#0041A4"/>
</svg>
