<svg width="30" height="30" viewBox="0 0 30 30" fill="none" xmlns="http://www.w3.org/2000/svg">
<path d="M30 14.9716C30.0153 23.2361 23.2754 29.9941 15.0109 29.9999C11.4414 30.0025 8.16271 28.7582 5.58616 26.6787C4.91619 26.138 4.8661 25.1339 5.47493 24.525L6.15641 23.8436C6.67711 23.3229 7.5084 23.2659 8.0853 23.7236C9.98358 25.2299 12.3859 26.129 15 26.129C21.1515 26.129 26.129 21.1505 26.129 15C26.129 8.84848 21.1505 3.87096 15 3.87096C12.0475 3.87096 9.36598 5.01828 7.37491 6.89104L10.4447 9.96084C11.0544 10.5705 10.6226 11.6129 9.76046 11.6129H0.967741C0.433246 11.6129 0 11.1796 0 10.6452V1.85244C0 0.990301 1.04238 0.558508 1.65205 1.16812L4.63826 4.15433C7.33118 1.5808 10.981 0 15 0C23.2748 0 29.9847 6.7004 30 14.9716ZM19.0577 19.7368L19.6519 18.9729C20.1441 18.34 20.0301 17.428 19.3972 16.9358L16.9355 15.0211V8.70967C16.9355 7.90796 16.2856 7.25806 15.4839 7.25806H14.5161C13.7144 7.25806 13.0645 7.90796 13.0645 8.70967V16.9144L17.0207 19.9914C17.6535 20.4836 18.5655 20.3696 19.0577 19.7368Z" fill="black"/>
</svg>
