<svg width="33" height="34" viewBox="0 0 33 34" fill="none" xmlns="http://www.w3.org/2000/svg">
<path d="M5.41958 6.027H13.549V14.1564H5.41958V6.027ZM27.0979 6.027V14.1564H18.9685V6.027H27.0979ZM18.9685 20.9309H21.6783V18.2211H18.9685V15.5113H21.6783V18.2211H24.3881V15.5113H27.0979V18.2211H24.3881V20.9309H27.0979V24.9955H24.3881V27.7053H21.6783V24.9955H17.6136V27.7053H14.9039V22.2857H18.9685V20.9309ZM21.6783 20.9309V24.9955H24.3881V20.9309H21.6783ZM5.41958 27.7053V19.576H13.549V27.7053H5.41958ZM8.12937 8.73679V11.4466H10.8392V8.73679H8.12937ZM21.6783 8.73679V11.4466H24.3881V8.73679H21.6783ZM8.12937 22.2857V24.9955H10.8392V22.2857H8.12937ZM5.41958 15.5113H8.12937V18.2211H5.41958V15.5113ZM12.1941 15.5113H17.6136V20.9309H14.9039V18.2211H12.1941V15.5113ZM14.9039 8.73679H17.6136V14.1564H14.9039V8.73679ZM2.70979 3.31721V8.73679H0V3.31721C0 2.59853 0.285495 1.90929 0.793679 1.4011C1.30186 0.892917 1.99111 0.607422 2.70979 0.607422L8.12937 0.607422V3.31721H2.70979ZM29.8077 0.607422C30.5264 0.607422 31.2156 0.892917 31.7238 1.4011C32.232 1.90929 32.5175 2.59853 32.5175 3.31721V8.73679H29.8077V3.31721H24.3881V0.607422H29.8077ZM2.70979 24.9955V30.4151H8.12937V33.1249H2.70979C1.99111 33.1249 1.30186 32.8394 0.793679 32.3312C0.285495 31.823 0 31.1338 0 30.4151V24.9955H2.70979ZM29.8077 30.4151V24.9955H32.5175V30.4151C32.5175 31.1338 32.232 31.823 31.7238 32.3312C31.2156 32.8394 30.5264 33.1249 29.8077 33.1249H24.3881V30.4151H29.8077Z" fill="black"/>
</svg>
