<svg width="30" height="30" viewBox="0 0 30 30" fill="none" xmlns="http://www.w3.org/2000/svg">
<path d="M14.9057 0.717252C12.0609 0.717252 9.28003 1.56083 6.91468 3.14131C4.54932 4.72179 2.70575 6.96818 1.6171 9.59642C0.528449 12.2247 0.243608 15.1167 0.798598 17.9068C1.35359 20.6969 2.72348 23.2598 4.73505 25.2714C6.74662 27.283 9.30951 28.6529 12.0996 29.2079C14.8898 29.7628 17.7818 29.478 20.41 28.3894C23.0383 27.3007 25.2847 25.4571 26.8652 23.0918C28.4456 20.7264 29.2892 17.9455 29.2892 15.1007C29.2979 13.2095 28.9317 11.3352 28.212 9.58619C27.4922 7.8372 26.433 6.24814 25.0957 4.91078C23.7583 3.57342 22.1693 2.51427 20.4203 1.7945C18.6713 1.07473 16.797 0.708596 14.9057 0.717252ZM14.9057 5.94761C15.9402 5.94761 16.9514 6.25437 17.8115 6.82909C18.6717 7.40381 19.3421 8.22068 19.7379 9.1764C20.1338 10.1321 20.2374 11.1838 20.0356 12.1984C19.8338 13.213 19.3356 14.1449 18.6041 14.8764C17.8727 15.6079 16.9407 16.106 15.9261 16.3078C14.9115 16.5096 13.8599 16.4061 12.9041 16.0102C11.9484 15.6143 11.1315 14.9439 10.5568 14.0838C9.98211 13.2237 9.67535 12.2124 9.67535 11.178C9.67535 9.79079 10.2264 8.46043 11.2073 7.47955C12.1882 6.49867 13.5185 5.94761 14.9057 5.94761ZM14.9057 26.8691C11.9494 26.8502 9.10601 25.7315 6.92942 23.7308C9.3801 22.3993 12.117 21.6814 14.9057 21.6387C17.6945 21.6814 20.4313 22.3993 22.882 23.7308C20.7054 25.7315 17.862 26.8502 14.9057 26.8691Z" fill="black"/>
</svg>
